HIERARCHY
ROOT hip
{
	OFFSET 0.000000 0.000000 0.000000 
	CHANNELS 6 Xposition Yposition Zposition Xrotation Zrotation Yrotation
	JOINT abdomen
	{
		OFFSET 0.000000 3.402643 0.000000 
		CHANNELS 3 Xrotation Zrotation Yrotation
		JOINT chest
		{
			OFFSET 0.000000 8.438565 -0.680529 
			CHANNELS 3 Xrotation Zrotation Yrotation
			JOINT neck
			{
				OFFSET 0.000000 10.207942 -0.272212 
				CHANNELS 3 Xrotation Zrotation Yrotation
				JOINT head
				{
					OFFSET 0.000000 3.130431 0.000000 
					CHANNELS 3 Xrotation Zrotation Yrotation
					End Site
					{
						OFFSET 0.000000 3.130435 0.000000 
					}
				}
			}
			JOINT lCollar
			{
				OFFSET 3.470700 6.669187 -0.816635 
				CHANNELS 3 Yrotation Zrotation Xrotation
				JOINT lShldr
				{
					OFFSET 3.198488 0.000000 0.000000 
					CHANNELS 3 Zrotation Yrotation Xrotation
					JOINT lForeArm
					{
						OFFSET 10.139888 0.000000 0.000000 
						CHANNELS 3 Yrotation Zrotation Xrotation
						JOINT lHand
						{
							OFFSET 8.370511 0.000000 0.000000 
							CHANNELS 3 Zrotation Yrotation Xrotation
							End Site
							{
								OFFSET 4.083176 0.000000 0.000000 
							}
						}
					}
				}
			}
			JOINT rCollar
			{
				OFFSET -3.470700 6.669187 -0.816635 
				CHANNELS 3 Yrotation Zrotation Xrotation
				JOINT rShldr
				{
					OFFSET -3.198488 0.000000 0.000000 
					CHANNELS 3 Zrotation Yrotation Xrotation
					JOINT rForeArm
					{
						OFFSET -10.139888 0.000000 0.000000 
						CHANNELS 3 Yrotation Zrotation Xrotation
						JOINT rHand
						{
							OFFSET -8.370511 0.000000 0.000000 
							CHANNELS 3 Zrotation Yrotation Xrotation
							End Site
							{
								OFFSET -4.083176 0.000000 0.000000 
							}
						}
					}
				}
			}
		}
	}
	JOINT lThigh
	{
		OFFSET 5.308129 -1.633274 1.361059 
		CHANNELS 3 Xrotation Zrotation Yrotation
		JOINT lShin
		{
			OFFSET -2.041588 -20.007561 0.000000 
			CHANNELS 3 Xrotation Zrotation Yrotation
			JOINT lFoot
			{
				OFFSET 0.000000 -19.190928 -1.224953 
				CHANNELS 3 Xrotation Yrotation Zrotation
				End Site
				{
					OFFSET 0.000000 -2.449906 4.627600 
				}
			}
		}
	}
	JOINT rThigh
	{
		OFFSET -5.308129 -1.633274 1.361059 
		CHANNELS 3 Xrotation Zrotation Yrotation
		JOINT rShin
		{
			OFFSET 2.041588 -20.007561 0.000000 
			CHANNELS 3 Xrotation Zrotation Yrotation
			JOINT rFoot
			{
				OFFSET 0.000000 -19.190928 -1.224953 
				CHANNELS 3 Xrotation Yrotation Zrotation
				End Site
				{
					OFFSET 0.000000 -2.449906 4.627600 
				}
			}
		}
	}
}
MOTION
Frames: 13
Frame Time: 0.033333
-6.560929 39.130089 52.252014 -5.030600 1.260213 -40.226536 0.000000 0.000000 0.000000 13.602191 -9.858430 -5.452062 -15.591145 9.864878 10.182295 21.723360 -11.688582 15.014695 -3.521967 9.154817 6.304141 18.582882 -43.756798 -96.178108 -22.061214 9.866646 8.687442 18.112329 14.561546 -8.299706 3.089181 -14.089146 8.026228 40.152058 115.069565 -41.642330 21.476971 -2.275216 43.530369 -15.113209 -19.572773 -8.291732 -41.362030 33.109371 11.190098 61.269558 0.130310 -18.585680 6.287537 0.030891 -9.043289 -18.506193 -42.603989 -19.228636 53.828552 -11.848604 20.417696 -25.430943 0.889781 -3.660322 
-6.978079 38.638065 52.265850 -5.029749 1.055034 -39.500191 0.000000 0.000000 0.000000 11.596185 -8.903738 -6.188969 -14.792355 9.690087 10.236674 21.900288 -11.656118 14.913273 -3.521967 9.154817 6.304141 15.504147 -44.532722 -94.311768 -21.904863 9.622169 9.073441 18.390001 14.754806 -8.273170 3.089181 -14.089146 8.026228 34.435764 114.652077 -46.929047 22.476959 -2.147826 43.716072 -15.135279 -19.740547 -8.279876 -42.221622 31.889210 11.147228 62.226753 0.069586 -23.922644 0.334658 0.305321 -5.101526 -18.183590 -43.075062 -19.898607 56.160255 -11.872952 20.038439 -28.204519 0.990126 -3.708304 
-7.332531 38.178085 52.322464 -5.265415 0.203421 -39.512009 0.000000 0.000000 0.000000 11.034882 -7.791268 -5.884628 -14.904016 9.666245 10.066527 21.608116 -11.785132 14.800672 -3.521967 9.154817 6.304141 13.343449 -44.950672 -92.928040 -21.881531 9.622834 9.742879 18.111143 15.061800 -8.258120 3.089181 -14.089146 8.026228 31.500204 114.806519 -50.021687 22.941875 -2.426836 44.772667 -14.743774 -20.347532 -8.274621 -41.630745 32.060429 10.709649 62.354900 0.218047 -19.755608 -4.712417 0.308671 -2.255453 -17.646894 -42.443649 -19.655987 57.856060 -12.262400 18.010805 -31.303204 1.057014 -3.625732 
-7.640029 37.666851 52.453880 -6.078912 -1.273375 -39.513725 0.000000 0.000000 0.000000 12.079137 -6.885090 -5.272616 -15.460087 9.198929 9.914096 20.708523 -11.145920 14.517113 -3.521967 9.154817 6.304141 12.889332 -45.447262 -93.396645 -22.061995 10.078417 11.057049 18.223217 16.090088 -8.144724 3.089181 -14.089146 8.026228 31.220112 115.008720 -50.860840 23.409628 -2.686088 44.564293 -15.081967 -20.429770 -8.232064 -40.980995 33.177746 9.970334 64.241760 1.780210 -24.414591 -6.352816 0.172992 -0.904735 -16.348137 -41.675781 -19.551147 59.632374 -12.681051 14.592426 -34.423004 1.078628 -3.453867 
-7.686464 37.335094 52.532330 -6.330705 -1.520273 -39.596825 0.000000 0.000000 0.000000 11.977775 -6.996688 -4.841387 -14.813114 8.841868 9.579058 19.253397 -11.029304 14.182473 -3.521967 9.154817 6.304141 12.445510 -46.122581 -93.194901 -22.256018 10.417872 10.785263 19.484333 16.335306 -8.082351 3.089181 -14.089146 8.026228 29.926146 114.743790 -52.816650 24.516844 -3.094456 44.285004 -14.982587 -20.602982 -8.233485 -41.717152 34.060673 10.547480 65.928207 1.367861 -22.139494 -5.698309 0.239779 -1.470689 -16.620979 -41.606270 -18.910650 60.862076 -13.189259 13.196346 -35.723598 1.097008 -3.382870 
-7.618603 37.103432 52.633984 -6.679251 -1.779109 -39.485931 0.000000 0.000000 0.000000 12.162568 -7.356086 -4.904430 -13.191600 8.384424 9.764728 17.405651 -11.109745 14.285691 -3.521967 9.154817 6.304141 12.161446 -46.392578 -92.148209 -22.477139 10.671533 8.965389 18.955410 16.417620 -8.087536 3.089181 -14.089146 8.026228 28.368698 114.215668 -54.353546 26.279421 -3.622898 44.770283 -14.371007 -20.833572 -8.269873 -41.362537 34.769772 11.662544 66.556931 0.783620 -21.104534 -7.557984 0.162707 -0.429204 -16.406435 -41.662979 -18.526402 61.361019 -13.550285 12.078135 -36.633663 1.095207 -3.302572 
-7.349349 37.046680 52.670738 -6.404334 -1.771929 -38.869976 0.000000 0.000000 0.000000 12.133094 -7.605867 -5.183176 -11.324745 8.298290 9.742566 15.058405 -11.035846 14.442602 -3.521967 9.154817 6.304141 12.541286 -47.354595 -91.929359 -22.731428 11.179042 7.745504 19.315996 17.019217 -8.013129 3.089181 -14.089146 8.026228 27.328571 112.451210 -54.272480 28.913246 -3.995479 44.245422 -14.273501 -20.749489 -8.278404 -42.202229 34.642769 11.624927 66.869095 0.666338 -21.256742 -8.309968 0.102357 0.015334 -16.308956 -41.722160 -18.514494 61.175396 -13.531408 12.003049 -36.223450 1.079371 -3.302880 
-6.907938 37.183552 52.669605 -5.793897 -1.731983 -38.634289 0.000000 0.000000 0.000000 12.450299 -7.675810 -5.025731 -9.116654 7.862168 9.859942 12.355359 -10.425546 14.520793 -3.521967 9.154817 6.304141 13.901217 -49.145691 -94.647133 -23.080915 12.815675 9.172946 18.303944 18.774715 -7.901218 3.089181 -14.089146 8.026228 27.946266 110.534897 -52.338387 31.430079 -4.364138 43.301693 -14.177836 -20.606432 -8.295705 -43.082977 34.107956 11.306453 66.552254 0.470413 -19.994486 -8.339382 0.116307 -0.053343 -16.806259 -41.378300 -17.941660 60.296371 -13.589828 13.650394 -33.927628 1.032835 -3.334377 
-6.334557 37.657940 52.680187 -5.680045 -1.582926 -38.816589 0.000000 0.000000 0.000000 13.870208 -8.402999 -4.423557 -7.101554 7.506615 9.831428 8.413044 -9.664094 14.605495 -3.521967 9.154817 6.304141 16.465984 -51.040314 -99.702591 -23.242706 14.934671 13.541306 15.042050 20.409069 -7.952229 3.089181 -14.089146 8.026228 29.982235 108.454010 -49.409534 34.165989 -4.752402 43.035015 -14.279495 -21.207441 -8.245231 -42.660210 32.864689 11.338568 65.202629 0.081974 -17.862551 -7.448691 0.187440 -0.760622 -16.992496 -41.211281 -17.387796 58.175255 -13.660362 15.727585 -30.175425 0.957903 -3.402809 
-5.720404 38.301147 52.570446 -4.176172 -0.895882 -40.142723 0.000000 0.000000 0.000000 13.775140 -8.857513 -2.698857 -5.901108 7.161681 9.754905 5.802162 -8.986811 14.496896 -3.521967 9.154817 6.304141 16.072756 -49.918121 -92.873123 -23.324209 14.165421 8.544563 19.442995 20.258574 -7.643027 3.089181 -14.089146 8.026228 32.729176 106.995811 -46.134460 36.081516 -5.345896 41.422691 -14.368193 -21.585493 -8.221325 -42.934254 32.777435 11.761097 63.126110 -0.739469 -16.149158 -6.332643 0.275017 -1.574193 -19.267012 -39.994061 -16.226604 55.343636 -13.159635 15.437349 -26.389202 0.819657 -3.230895 
-5.016654 39.221397 52.561165 -2.451215 -0.423467 -40.470085 0.000000 0.000000 0.000000 13.966842 -8.210538 -1.382458 -7.701922 6.574579 9.743180 5.477999 -8.261798 14.124112 -3.521967 9.154817 6.304141 16.762026 -51.139076 -93.493660 -23.384661 14.872588 7.338921 20.456507 21.114759 -7.480194 3.089181 -14.089146 8.026228 37.161720 103.356956 -40.087921 40.663670 -4.085113 38.246841 -14.812778 -22.772892 -8.098916 -43.113823 31.824661 11.604920 59.969677 -1.403210 -14.566681 -5.216967 0.303851 -2.164322 -19.930450 -38.770714 -16.418972 51.676075 -11.970731 15.264006 -21.412224 0.596966 -2.942361 
-4.420002 40.228294 52.550095 -0.393548 0.036689 -41.289070 0.000000 0.000000 0.000000 12.993070 -7.216070 0.816393 -9.106963 5.643238 9.588449 5.205097 -7.544075 13.437508 -3.521967 9.154817 6.304141 16.119184 -52.462769 -92.883080 -23.377930 15.639589 7.668431 19.943041 22.185751 -7.382786 3.089181 -14.089146 8.026228 43.257526 100.319038 -31.642122 42.712036 -4.475009 35.936565 -15.272322 -23.030640 -8.037241 -43.080563 31.722734 11.732491 56.540844 -2.154759 -13.880672 -3.459206 0.357728 -3.021460 -20.937101 -36.462570 -15.537154 48.721169 -11.243795 12.146350 -18.646694 0.430686 -2.468087 
-4.102587 41.062916 52.576057 1.210207 0.217711 -42.002327 0.000000 0.000000 0.000000 11.935210 -6.574718 2.712236 -10.352551 5.699975 9.058934 5.186328 -7.245030 12.935959 -3.521967 9.154817 6.304141 15.740291 -53.021858 -91.731781 -23.363831 15.979166 7.464208 20.901320 22.446192 -7.269760 3.089181 -14.089146 8.026228 54.216702 98.021454 -18.532305 43.807110 -5.073014 35.136589 -15.020773 -23.930893 -7.993440 -42.484413 32.083378 12.009031 53.597466 -2.846446 -13.856378 -2.532466 0.314382 -3.538121 -20.681875 -34.114471 -15.327798 48.142986 -10.741651 6.092710 -19.289293 0.350013 -2.049618 
